<svg width="92" height="92" viewBox="0 0 92 92" fill="none" xmlns="http://www.w3.org/2000/svg">
<path d="M45.5291 91.6926C70.6741 91.6926 91.0581 71.1665 91.0581 45.8463C91.0581 20.5261 70.6741 0 45.5291 0C20.3841 0 0 20.5261 0 45.8463C0 71.1665 20.3841 91.6926 45.5291 91.6926Z" fill="#BAA0DD"/>
<path d="M38.2435 64.4764C38.1452 64.4764 38.0457 64.4741 37.9462 64.4693C37.073 64.4266 36.2193 64.1943 35.4436 63.7883C34.6679 63.3823 33.9885 62.8122 33.4521 62.1171L26.2763 52.8278C25.2896 51.5479 24.8474 49.9261 25.0469 48.3183C25.2463 46.7105 26.071 45.248 27.34 44.2518L27.597 44.0502C28.8684 43.0567 30.4792 42.6114 32.0762 42.8119C33.6732 43.0125 35.126 43.8426 36.1161 45.1202C36.4382 45.5376 36.8461 45.8799 37.3118 46.1236C37.7776 46.3674 38.2901 46.5068 38.8144 46.5324C39.3393 46.5633 39.8644 46.4771 40.3524 46.28C40.8403 46.0829 41.279 45.7797 41.6371 45.3921L56.2067 29.9052C57.3147 28.7304 58.8401 28.0461 60.4484 28.0022C62.0568 27.9584 63.6167 28.5587 64.7862 29.6714L65.023 29.8968C66.1903 31.0123 66.8705 32.5486 66.9142 34.1685C66.958 35.7883 66.3618 37.3595 65.2564 38.5373L42.6475 62.568C42.081 63.1711 41.3982 63.6514 40.6409 63.9795C39.8837 64.3077 39.0679 64.4768 38.2435 64.4764Z" fill="white"/>
</svg>
